<svg width="244" height="61" viewBox="0 0 244 61" fill="none" xmlns="http://www.w3.org/2000/svg">
<path d="M0.064 7.864H3.536C3.90933 7.864 4.21333 7.95467 4.448 8.136C4.68267 8.31733 4.85867 8.552 4.976 8.84L10.416 22.952C10.5973 23.4107 10.768 23.9173 10.928 24.472C11.0987 25.016 11.2587 25.592 11.408 26.2C11.6533 24.9733 11.9573 23.8907 12.32 22.952L17.744 8.84C17.84 8.59466 18.0107 8.37067 18.256 8.168C18.5013 7.96533 18.8053 7.864 19.168 7.864H22.64L13.296 31H9.408L0.064 7.864ZM46.3405 19.432C46.3405 21.128 46.0578 22.7013 45.4925 24.152C44.9272 25.592 44.1325 26.84 43.1085 27.896C42.0845 28.952 40.8525 29.7787 39.4125 30.376C37.9725 30.9627 36.3778 31.256 34.6285 31.256C32.8792 31.256 31.2792 30.9627 29.8285 30.376C28.3885 29.7787 27.1512 28.952 26.1165 27.896C25.0925 26.84 24.2978 25.592 23.7325 24.152C23.1672 22.7013 22.8845 21.128 22.8845 19.432C22.8845 17.736 23.1672 16.168 23.7325 14.728C24.2978 13.2773 25.0925 12.024 26.1165 10.968C27.1512 9.912 28.3885 9.09067 29.8285 8.504C31.2792 7.90667 32.8792 7.608 34.6285 7.608C36.3778 7.608 37.9725 7.90667 39.4125 8.504C40.8525 9.10133 42.0845 9.928 43.1085 10.984C44.1325 12.0293 44.9272 13.2773 45.4925 14.728C46.0578 16.168 46.3405 17.736 46.3405 19.432ZM41.9245 19.432C41.9245 18.1627 41.7538 17.0267 41.4125 16.024C41.0818 15.0107 40.6018 14.152 39.9725 13.448C39.3432 12.744 38.5752 12.2053 37.6685 11.832C36.7725 11.4587 35.7592 11.272 34.6285 11.272C33.4978 11.272 32.4792 11.4587 31.5725 11.832C30.6658 12.2053 29.8925 12.744 29.2525 13.448C28.6232 14.152 28.1378 15.0107 27.7965 16.024C27.4552 17.0267 27.2845 18.1627 27.2845 19.432C27.2845 20.7013 27.4552 21.8427 27.7965 22.856C28.1378 23.8587 28.6232 24.712 29.2525 25.416C29.8925 26.1093 30.6658 26.6427 31.5725 27.016C32.4792 27.3893 33.4978 27.576 34.6285 27.576C35.7592 27.576 36.7725 27.3893 37.6685 27.016C38.5752 26.6427 39.3432 26.1093 39.9725 25.416C40.6018 24.712 41.0818 23.8587 41.4125 22.856C41.7538 21.8427 41.9245 20.7013 41.9245 19.432ZM54.0463 27.448H63.3103V31H49.7423V7.864H54.0463V27.448ZM60.939 7.864H64.411C64.7843 7.864 65.0883 7.95467 65.323 8.136C65.5577 8.31733 65.7337 8.552 65.851 8.84L71.291 22.952C71.4723 23.4107 71.643 23.9173 71.803 24.472C71.9737 25.016 72.1337 25.592 72.283 26.2C72.5283 24.9733 72.8323 23.8907 73.195 22.952L78.619 8.84C78.715 8.59466 78.8857 8.37067 79.131 8.168C79.3763 7.96533 79.6803 7.864 80.043 7.864H83.515L74.171 31H70.283L60.939 7.864ZM107.216 19.432C107.216 21.128 106.933 22.7013 106.368 24.152C105.802 25.592 105.008 26.84 103.984 27.896C102.96 28.952 101.728 29.7787 100.288 30.376C98.8475 30.9627 97.2528 31.256 95.5035 31.256C93.7542 31.256 92.1542 30.9627 90.7035 30.376C89.2635 29.7787 88.0262 28.952 86.9915 27.896C85.9675 26.84 85.1728 25.592 84.6075 24.152C84.0422 22.7013 83.7595 21.128 83.7595 19.432C83.7595 17.736 84.0422 16.168 84.6075 14.728C85.1728 13.2773 85.9675 12.024 86.9915 10.968C88.0262 9.912 89.2635 9.09067 90.7035 8.504C92.1542 7.90667 93.7542 7.608 95.5035 7.608C97.2528 7.608 98.8475 7.90667 100.288 8.504C101.728 9.10133 102.96 9.928 103.984 10.984C105.008 12.0293 105.802 13.2773 106.368 14.728C106.933 16.168 107.216 17.736 107.216 19.432ZM102.8 19.432C102.8 18.1627 102.629 17.0267 102.288 16.024C101.957 15.0107 101.477 14.152 100.848 13.448C100.218 12.744 99.4502 12.2053 98.5435 11.832C97.6475 11.4587 96.6342 11.272 95.5035 11.272C94.3728 11.272 93.3542 11.4587 92.4475 11.832C91.5408 12.2053 90.7675 12.744 90.1275 13.448C89.4982 14.152 89.0128 15.0107 88.6715 16.024C88.3302 17.0267 88.1595 18.1627 88.1595 19.432C88.1595 20.7013 88.3302 21.8427 88.6715 22.856C89.0128 23.8587 89.4982 24.712 90.1275 25.416C90.7675 26.1093 91.5408 26.6427 92.4475 27.016C93.3542 27.3893 94.3728 27.576 95.5035 27.576C96.6342 27.576 97.6475 27.3893 98.5435 27.016C99.4502 26.6427 100.218 26.1093 100.848 25.416C101.477 24.712 101.957 23.8587 102.288 22.856C102.629 21.8427 102.8 20.7013 102.8 19.432ZM126.521 25.544C126.756 25.544 126.959 25.6347 127.129 25.816L128.825 27.656C127.887 28.8187 126.729 29.7093 125.353 30.328C123.988 30.9467 122.345 31.256 120.425 31.256C118.708 31.256 117.161 30.9627 115.785 30.376C114.42 29.7893 113.252 28.9733 112.281 27.928C111.311 26.8827 110.564 25.6347 110.041 24.184C109.529 22.7333 109.273 21.1493 109.273 19.432C109.273 17.6933 109.561 16.104 110.137 14.664C110.713 13.2133 111.524 11.9653 112.569 10.92C113.615 9.87467 114.863 9.064 116.313 8.488C117.775 7.90133 119.385 7.608 121.145 7.608C122.863 7.608 124.361 7.88533 125.641 8.44C126.932 8.984 128.036 9.70933 128.953 10.616L127.513 12.616C127.428 12.744 127.316 12.856 127.177 12.952C127.049 13.048 126.868 13.096 126.633 13.096C126.388 13.096 126.137 13 125.881 12.808C125.625 12.616 125.3 12.408 124.905 12.184C124.511 11.96 124.009 11.752 123.401 11.56C122.804 11.368 122.041 11.272 121.113 11.272C120.025 11.272 119.023 11.464 118.105 11.848C117.199 12.2213 116.415 12.76 115.753 13.464C115.103 14.168 114.591 15.0267 114.217 16.04C113.855 17.0427 113.673 18.1733 113.673 19.432C113.673 20.7333 113.855 21.8907 114.217 22.904C114.591 23.9173 115.092 24.7707 115.721 25.464C116.351 26.1573 117.092 26.6907 117.945 27.064C118.799 27.4267 119.716 27.608 120.697 27.608C121.284 27.608 121.812 27.576 122.281 27.512C122.761 27.448 123.199 27.3467 123.593 27.208C123.999 27.0693 124.377 26.8933 124.729 26.68C125.092 26.456 125.449 26.184 125.801 25.864C125.908 25.768 126.02 25.6933 126.137 25.64C126.255 25.576 126.383 25.544 126.521 25.544ZM152.422 31H149.094C148.721 31 148.411 30.9093 148.166 30.728C147.931 30.536 147.761 30.3013 147.654 30.024L145.926 25.304H136.342L134.614 30.024C134.529 30.2693 134.358 30.4933 134.102 30.696C133.857 30.8987 133.553 31 133.19 31H129.846L138.934 7.864H143.334L152.422 31ZM137.446 22.264H144.822L142.006 14.568C141.878 14.2267 141.734 13.8267 141.574 13.368C141.425 12.8987 141.275 12.392 141.126 11.848C140.977 12.392 140.827 12.8987 140.678 13.368C140.539 13.8373 140.401 14.248 140.262 14.6L137.446 22.264ZM159.109 27.448H168.373V31H154.805V7.864H159.109V27.448ZM185.928 7.864V11.288H175.672V17.704H183.752V21.016H175.672V27.56H185.928V31H171.336V7.864H185.928ZM202.049 12.072C201.931 12.3067 201.793 12.472 201.633 12.568C201.483 12.664 201.302 12.712 201.089 12.712C200.875 12.712 200.635 12.632 200.369 12.472C200.102 12.3013 199.787 12.1147 199.425 11.912C199.062 11.7093 198.635 11.528 198.145 11.368C197.665 11.1973 197.094 11.112 196.433 11.112C195.835 11.112 195.313 11.1867 194.865 11.336C194.427 11.4747 194.054 11.672 193.745 11.928C193.446 12.184 193.222 12.4933 193.073 12.856C192.923 13.208 192.849 13.5973 192.849 14.024C192.849 14.568 192.998 15.0213 193.297 15.384C193.606 15.7467 194.011 16.056 194.513 16.312C195.014 16.568 195.585 16.7973 196.225 17C196.865 17.2027 197.515 17.4213 198.177 17.656C198.849 17.88 199.505 18.1467 200.145 18.456C200.785 18.7547 201.355 19.1387 201.857 19.608C202.358 20.0667 202.758 20.632 203.057 21.304C203.366 21.976 203.521 22.792 203.521 23.752C203.521 24.7973 203.339 25.7787 202.977 26.696C202.625 27.6027 202.102 28.3973 201.409 29.08C200.726 29.752 199.889 30.2853 198.897 30.68C197.905 31.064 196.769 31.256 195.489 31.256C194.753 31.256 194.027 31.1813 193.313 31.032C192.598 30.8933 191.91 30.6907 191.249 30.424C190.598 30.1573 189.985 29.8373 189.409 29.464C188.843 29.0907 188.337 28.6747 187.889 28.216L189.137 26.152C189.254 26.0027 189.393 25.88 189.553 25.784C189.723 25.6773 189.91 25.624 190.113 25.624C190.379 25.624 190.667 25.736 190.977 25.96C191.286 26.1733 191.649 26.4133 192.065 26.68C192.491 26.9467 192.987 27.192 193.553 27.416C194.129 27.6293 194.817 27.736 195.617 27.736C196.843 27.736 197.793 27.448 198.465 26.872C199.137 26.2853 199.473 25.448 199.473 24.36C199.473 23.752 199.318 23.256 199.009 22.872C198.71 22.488 198.31 22.168 197.809 21.912C197.307 21.6453 196.737 21.4213 196.097 21.24C195.457 21.0587 194.806 20.8613 194.145 20.648C193.483 20.4347 192.833 20.1787 192.193 19.88C191.553 19.5813 190.982 19.192 190.481 18.712C189.979 18.232 189.574 17.6347 189.265 16.92C188.966 16.1947 188.817 15.304 188.817 14.248C188.817 13.4053 188.982 12.584 189.312 11.784C189.654 10.984 190.145 10.2747 190.785 9.656C191.435 9.03733 192.23 8.54133 193.169 8.168C194.107 7.79467 195.179 7.608 196.385 7.608C197.75 7.608 199.009 7.82133 200.161 8.248C201.313 8.67467 202.294 9.272 203.105 10.04L202.049 12.072Z" fill="#4B6F57"/>
<path d="M5.252 56H2.73V37.371H5.252V56ZM9.87066 56V42.831H11.2487C11.578 42.831 11.786 42.9913 11.8727 43.312L12.0547 44.742C12.6267 44.1093 13.2637 43.598 13.9657 43.208C14.6763 42.818 15.4953 42.623 16.4227 42.623C17.142 42.623 17.7747 42.7443 18.3207 42.987C18.8753 43.221 19.3347 43.559 19.6987 44.001C20.0713 44.4343 20.353 44.9587 20.5437 45.574C20.7343 46.1893 20.8297 46.8697 20.8297 47.615V56H18.5157V47.615C18.5157 46.6183 18.286 45.847 17.8267 45.301C17.376 44.7463 16.6827 44.469 15.7467 44.469C15.062 44.469 14.4207 44.6337 13.8227 44.963C13.2333 45.2923 12.6873 45.7387 12.1847 46.302V56H9.87066ZM24.8379 56V44.807L23.3819 44.638C23.1999 44.5947 23.0483 44.5297 22.9269 44.443C22.8143 44.3477 22.7579 44.2133 22.7579 44.04V43.091H24.8379V41.817C24.8379 41.063 24.9419 40.3957 25.1499 39.815C25.3666 39.2257 25.6699 38.7317 26.0599 38.333C26.4586 37.9257 26.9353 37.618 27.4899 37.41C28.0446 37.202 28.6686 37.098 29.3619 37.098C29.9513 37.098 30.4973 37.1847 30.9999 37.358L30.9479 38.515C30.9393 38.6883 30.8656 38.7923 30.7269 38.827C30.5883 38.8617 30.3933 38.879 30.1419 38.879H29.7389C29.3403 38.879 28.9763 38.931 28.6469 39.035C28.3263 39.139 28.0489 39.308 27.8149 39.542C27.5809 39.776 27.3989 40.0837 27.2689 40.465C27.1476 40.8463 27.0869 41.3187 27.0869 41.882V43.091H30.8959V44.768H27.1649V56H24.8379ZM38.4077 42.623C39.3697 42.623 40.2364 42.7833 41.0077 43.104C41.7877 43.4247 42.4464 43.8797 42.9837 44.469C43.5297 45.0583 43.9457 45.7733 44.2317 46.614C44.5264 47.446 44.6737 48.3777 44.6737 49.409C44.6737 50.449 44.5264 51.385 44.2317 52.217C43.9457 53.049 43.5297 53.7597 42.9837 54.349C42.4464 54.9383 41.7877 55.3933 41.0077 55.714C40.2364 56.026 39.3697 56.182 38.4077 56.182C37.4457 56.182 36.5747 56.026 35.7947 55.714C35.0234 55.3933 34.3647 54.9383 33.8187 54.349C33.2727 53.7597 32.8524 53.049 32.5577 52.217C32.263 51.385 32.1157 50.449 32.1157 49.409C32.1157 48.3777 32.263 47.446 32.5577 46.614C32.8524 45.7733 33.2727 45.0583 33.8187 44.469C34.3647 43.8797 35.0234 43.4247 35.7947 43.104C36.5747 42.7833 37.4457 42.623 38.4077 42.623ZM38.4077 54.375C39.7077 54.375 40.6784 53.9417 41.3197 53.075C41.961 52.1997 42.2817 50.982 42.2817 49.422C42.2817 47.8533 41.961 46.6313 41.3197 45.756C40.6784 44.8807 39.7077 44.443 38.4077 44.443C37.749 44.443 37.177 44.5557 36.6917 44.781C36.2064 45.0063 35.799 45.3313 35.4697 45.756C35.149 46.1807 34.9064 46.705 34.7417 47.329C34.5857 47.9443 34.5077 48.642 34.5077 49.422C34.5077 50.202 34.5857 50.8997 34.7417 51.515C34.9064 52.1303 35.149 52.6503 35.4697 53.075C35.799 53.491 36.2064 53.8117 36.6917 54.037C37.177 54.2623 37.749 54.375 38.4077 54.375ZM47.525 56V42.831H48.851C49.1023 42.831 49.2756 42.8787 49.371 42.974C49.4663 43.0693 49.5313 43.234 49.566 43.468L49.722 45.522C50.1726 44.6033 50.7273 43.8883 51.386 43.377C52.0533 42.857 52.8333 42.597 53.726 42.597C54.09 42.597 54.4193 42.6403 54.714 42.727C55.0086 42.805 55.2816 42.9177 55.533 43.065L55.234 44.794C55.1733 45.0107 55.039 45.119 54.831 45.119C54.7096 45.119 54.5233 45.08 54.272 45.002C54.0206 44.9153 53.6696 44.872 53.219 44.872C52.413 44.872 51.737 45.106 51.191 45.574C50.6536 46.042 50.203 46.7223 49.839 47.615V56H47.525ZM58.0113 56V42.831H59.3893C59.7186 42.831 59.9266 42.9913 60.0133 43.312L60.1823 44.664C60.6676 44.066 61.2093 43.5763 61.8073 43.195C62.4139 42.8137 63.1159 42.623 63.9133 42.623C64.8059 42.623 65.5253 42.87 66.0713 43.364C66.6259 43.858 67.0246 44.5253 67.2673 45.366C67.4493 44.8893 67.6876 44.4777 67.9823 44.131C68.2856 43.7843 68.6236 43.4983 68.9963 43.273C69.3689 43.0477 69.7633 42.883 70.1793 42.779C70.6039 42.675 71.0329 42.623 71.4663 42.623C72.1596 42.623 72.7749 42.7357 73.3123 42.961C73.8583 43.1777 74.3176 43.4983 74.6903 43.923C75.0716 44.3477 75.3619 44.872 75.5613 45.496C75.7606 46.1113 75.8603 46.8177 75.8603 47.615V56H73.5463V47.615C73.5463 46.5837 73.3209 45.8037 72.8703 45.275C72.4196 44.7377 71.7653 44.469 70.9073 44.469C70.5259 44.469 70.1619 44.5383 69.8153 44.677C69.4773 44.807 69.1783 45.002 68.9183 45.262C68.6583 45.522 68.4503 45.8513 68.2943 46.25C68.1469 46.64 68.0733 47.095 68.0733 47.615V56H65.7593V47.615C65.7593 46.5577 65.5469 45.769 65.1223 45.249C64.6976 44.729 64.0779 44.469 63.2633 44.469C62.6913 44.469 62.1583 44.625 61.6643 44.937C61.1789 45.2403 60.7326 45.6563 60.3253 46.185V56H58.0113ZM89.0368 56H88.0098C87.7845 56 87.6025 55.9653 87.4638 55.896C87.3251 55.8267 87.2341 55.6793 87.1908 55.454L86.9308 54.232C86.5841 54.544 86.2461 54.8257 85.9168 55.077C85.5875 55.3197 85.2408 55.5277 84.8768 55.701C84.5128 55.8657 84.1228 55.9913 83.7068 56.078C83.2995 56.1647 82.8445 56.208 82.3418 56.208C81.8305 56.208 81.3495 56.1387 80.8988 56C80.4568 55.8527 80.0711 55.636 79.7418 55.35C79.4125 55.064 79.1481 54.7043 78.9488 54.271C78.7581 53.829 78.6628 53.309 78.6628 52.711C78.6628 52.191 78.8058 51.6927 79.0918 51.216C79.3778 50.7307 79.8371 50.3017 80.4698 49.929C81.1111 49.5563 81.9475 49.253 82.9788 49.019C84.0101 48.7763 85.2711 48.6377 86.7618 48.603V47.576C86.7618 46.5533 86.5408 45.782 86.0988 45.262C85.6655 44.7333 85.0198 44.469 84.1618 44.469C83.5985 44.469 83.1218 44.5427 82.7318 44.69C82.3505 44.8287 82.0168 44.989 81.7308 45.171C81.4535 45.3443 81.2108 45.5047 81.0028 45.652C80.8035 45.7907 80.6041 45.86 80.4048 45.86C80.2488 45.86 80.1101 45.821 79.9888 45.743C79.8761 45.6563 79.7851 45.5523 79.7158 45.431L79.2998 44.69C80.0278 43.988 80.8121 43.4637 81.6528 43.117C82.4935 42.7703 83.4251 42.597 84.4478 42.597C85.1845 42.597 85.8388 42.7183 86.4108 42.961C86.9828 43.2037 87.4638 43.5417 87.8538 43.975C88.2438 44.4083 88.5385 44.9327 88.7378 45.548C88.9371 46.1633 89.0368 46.8393 89.0368 47.576V56ZM83.0308 54.583C83.4381 54.583 83.8108 54.544 84.1488 54.466C84.4868 54.3793 84.8031 54.2623 85.0978 54.115C85.4011 53.959 85.6871 53.7727 85.9558 53.556C86.2331 53.3393 86.5018 53.0923 86.7618 52.815V50.072C85.6958 50.1067 84.7901 50.1933 84.0448 50.332C83.2995 50.462 82.6928 50.6353 82.2248 50.852C81.7568 51.0687 81.4145 51.3243 81.1978 51.619C80.9898 51.9137 80.8858 52.243 80.8858 52.607C80.8858 52.9537 80.9421 53.2527 81.0548 53.504C81.1675 53.7553 81.3191 53.9633 81.5098 54.128C81.7005 54.284 81.9258 54.401 82.1858 54.479C82.4458 54.5483 82.7275 54.583 83.0308 54.583ZM96.5335 56.208C95.4935 56.208 94.6919 55.9177 94.1285 55.337C93.5739 54.7563 93.2965 53.92 93.2965 52.828V44.768H91.7105C91.5719 44.768 91.4549 44.729 91.3595 44.651C91.2642 44.5643 91.2165 44.4343 91.2165 44.261V43.338L93.3745 43.065L93.9075 38.996C93.9249 38.866 93.9812 38.762 94.0765 38.684C94.1719 38.5973 94.2932 38.554 94.4405 38.554H95.6105V43.091H99.3805V44.768H95.6105V52.672C95.6105 53.2267 95.7449 53.6383 96.0135 53.907C96.2822 54.1757 96.6289 54.31 97.0535 54.31C97.2962 54.31 97.5042 54.2797 97.6775 54.219C97.8595 54.1497 98.0155 54.076 98.1455 53.998C98.2755 53.92 98.3839 53.8507 98.4705 53.79C98.5659 53.7207 98.6482 53.686 98.7175 53.686C98.8389 53.686 98.9472 53.7597 99.0425 53.907L99.7185 55.012C99.3199 55.3847 98.8389 55.6793 98.2755 55.896C97.7122 56.104 97.1315 56.208 96.5335 56.208ZM104.816 42.831V56H102.502V42.831H104.816ZM105.336 38.697C105.336 38.9223 105.288 39.1347 105.193 39.334C105.106 39.5247 104.985 39.698 104.829 39.854C104.681 40.0013 104.508 40.1183 104.309 40.205C104.109 40.2917 103.897 40.335 103.672 40.335C103.446 40.335 103.234 40.2917 103.035 40.205C102.844 40.1183 102.671 40.0013 102.515 39.854C102.367 39.698 102.25 39.5247 102.164 39.334C102.077 39.1347 102.034 38.9223 102.034 38.697C102.034 38.4717 102.077 38.2593 102.164 38.06C102.25 37.852 102.367 37.6743 102.515 37.527C102.671 37.371 102.844 37.2497 103.035 37.163C103.234 37.0763 103.446 37.033 103.672 37.033C103.897 37.033 104.109 37.0763 104.309 37.163C104.508 37.2497 104.681 37.371 104.829 37.527C104.985 37.6743 105.106 37.852 105.193 38.06C105.288 38.2593 105.336 38.4717 105.336 38.697ZM114.224 42.623C115.186 42.623 116.053 42.7833 116.824 43.104C117.604 43.4247 118.263 43.8797 118.8 44.469C119.346 45.0583 119.762 45.7733 120.048 46.614C120.343 47.446 120.49 48.3777 120.49 49.409C120.49 50.449 120.343 51.385 120.048 52.217C119.762 53.049 119.346 53.7597 118.8 54.349C118.263 54.9383 117.604 55.3933 116.824 55.714C116.053 56.026 115.186 56.182 114.224 56.182C113.262 56.182 112.391 56.026 111.611 55.714C110.84 55.3933 110.181 54.9383 109.635 54.349C109.089 53.7597 108.669 53.049 108.374 52.217C108.079 51.385 107.932 50.449 107.932 49.409C107.932 48.3777 108.079 47.446 108.374 46.614C108.669 45.7733 109.089 45.0583 109.635 44.469C110.181 43.8797 110.84 43.4247 111.611 43.104C112.391 42.7833 113.262 42.623 114.224 42.623ZM114.224 54.375C115.524 54.375 116.495 53.9417 117.136 53.075C117.777 52.1997 118.098 50.982 118.098 49.422C118.098 47.8533 117.777 46.6313 117.136 45.756C116.495 44.8807 115.524 44.443 114.224 44.443C113.565 44.443 112.993 44.5557 112.508 44.781C112.023 45.0063 111.615 45.3313 111.286 45.756C110.965 46.1807 110.723 46.705 110.558 47.329C110.402 47.9443 110.324 48.642 110.324 49.422C110.324 50.202 110.402 50.8997 110.558 51.515C110.723 52.1303 110.965 52.6503 111.286 53.075C111.615 53.491 112.023 53.8117 112.508 54.037C112.993 54.2623 113.565 54.375 114.224 54.375ZM123.341 56V42.831H124.719C125.049 42.831 125.257 42.9913 125.343 43.312L125.525 44.742C126.097 44.1093 126.734 43.598 127.436 43.208C128.147 42.818 128.966 42.623 129.893 42.623C130.613 42.623 131.245 42.7443 131.791 42.987C132.346 43.221 132.805 43.559 133.169 44.001C133.542 44.4343 133.824 44.9587 134.014 45.574C134.205 46.1893 134.3 46.8697 134.3 47.615V56H131.986V47.615C131.986 46.6183 131.757 45.847 131.297 45.301C130.847 44.7463 130.153 44.469 129.217 44.469C128.533 44.469 127.891 44.6337 127.293 44.963C126.704 45.2923 126.158 45.7387 125.655 46.302V56H123.341ZM145.949 49.032V56H143.44V37.371H148.939C150.118 37.371 151.14 37.5097 152.007 37.787C152.882 38.0557 153.606 38.4413 154.178 38.944C154.75 39.4467 155.175 40.0533 155.452 40.764C155.738 41.4747 155.881 42.2677 155.881 43.143C155.881 44.0097 155.729 44.8027 155.426 45.522C155.123 46.2413 154.676 46.861 154.087 47.381C153.506 47.901 152.783 48.3083 151.916 48.603C151.049 48.889 150.057 49.032 148.939 49.032H145.949ZM145.949 47.03H148.939C149.658 47.03 150.291 46.9347 150.837 46.744C151.392 46.5533 151.855 46.289 152.228 45.951C152.601 45.6043 152.882 45.1927 153.073 44.716C153.264 44.2393 153.359 43.715 153.359 43.143C153.359 41.9557 152.991 41.0283 152.254 40.361C151.526 39.6937 150.421 39.36 148.939 39.36H145.949V47.03ZM158.711 56V42.831H160.037C160.288 42.831 160.461 42.8787 160.557 42.974C160.652 43.0693 160.717 43.234 160.752 43.468L160.908 45.522C161.358 44.6033 161.913 43.8883 162.572 43.377C163.239 42.857 164.019 42.597 164.912 42.597C165.276 42.597 165.605 42.6403 165.9 42.727C166.194 42.805 166.467 42.9177 166.719 43.065L166.42 44.794C166.359 45.0107 166.225 45.119 166.017 45.119C165.895 45.119 165.709 45.08 165.458 45.002C165.206 44.9153 164.855 44.872 164.405 44.872C163.599 44.872 162.923 45.106 162.377 45.574C161.839 46.042 161.389 46.7223 161.025 47.615V56H158.711ZM174.527 42.623C175.489 42.623 176.355 42.7833 177.127 43.104C177.907 43.4247 178.565 43.8797 179.103 44.469C179.649 45.0583 180.065 45.7733 180.351 46.614C180.645 47.446 180.793 48.3777 180.793 49.409C180.793 50.449 180.645 51.385 180.351 52.217C180.065 53.049 179.649 53.7597 179.103 54.349C178.565 54.9383 177.907 55.3933 177.127 55.714C176.355 56.026 175.489 56.182 174.527 56.182C173.565 56.182 172.694 56.026 171.914 55.714C171.142 55.3933 170.484 54.9383 169.938 54.349C169.392 53.7597 168.971 53.049 168.677 52.217C168.382 51.385 168.235 50.449 168.235 49.409C168.235 48.3777 168.382 47.446 168.677 46.614C168.971 45.7733 169.392 45.0583 169.938 44.469C170.484 43.8797 171.142 43.4247 171.914 43.104C172.694 42.7833 173.565 42.623 174.527 42.623ZM174.527 54.375C175.827 54.375 176.797 53.9417 177.439 53.075C178.08 52.1997 178.401 50.982 178.401 49.422C178.401 47.8533 178.08 46.6313 177.439 45.756C176.797 44.8807 175.827 44.443 174.527 44.443C173.868 44.443 173.296 44.5557 172.811 44.781C172.325 45.0063 171.918 45.3313 171.589 45.756C171.268 46.1807 171.025 46.705 170.861 47.329C170.705 47.9443 170.627 48.642 170.627 49.422C170.627 50.202 170.705 50.8997 170.861 51.515C171.025 52.1303 171.268 52.6503 171.589 53.075C171.918 53.491 172.325 53.8117 172.811 54.037C173.296 54.2623 173.868 54.375 174.527 54.375ZM186.218 42.831V56.975C186.218 57.5037 186.149 57.9933 186.01 58.444C185.871 58.9033 185.65 59.302 185.347 59.64C185.052 59.978 184.667 60.2423 184.19 60.433C183.722 60.6323 183.159 60.732 182.5 60.732C182.214 60.732 181.954 60.7103 181.72 60.667C181.486 60.6237 181.252 60.5587 181.018 60.472L181.122 59.224C181.139 59.1113 181.178 59.0377 181.239 59.003C181.3 58.977 181.395 58.964 181.525 58.964C181.594 58.964 181.668 58.964 181.746 58.964C181.824 58.9727 181.919 58.977 182.032 58.977C182.708 58.977 183.189 58.8167 183.475 58.496C183.761 58.184 183.904 57.677 183.904 56.975V42.831H186.218ZM186.738 38.697C186.738 38.9223 186.69 39.1347 186.595 39.334C186.508 39.5247 186.387 39.698 186.231 39.854C186.084 40.0013 185.91 40.1183 185.711 40.205C185.512 40.2917 185.299 40.335 185.074 40.335C184.849 40.335 184.636 40.2917 184.437 40.205C184.246 40.1183 184.073 40.0013 183.917 39.854C183.77 39.698 183.653 39.5247 183.566 39.334C183.479 39.1347 183.436 38.9223 183.436 38.697C183.436 38.4717 183.479 38.2593 183.566 38.06C183.653 37.852 183.77 37.6743 183.917 37.527C184.073 37.371 184.246 37.2497 184.437 37.163C184.636 37.0763 184.849 37.033 185.074 37.033C185.299 37.033 185.512 37.0763 185.711 37.163C185.91 37.2497 186.084 37.371 186.231 37.527C186.387 37.6743 186.508 37.852 186.595 38.06C186.69 38.2593 186.738 38.4717 186.738 38.697ZM195.459 42.623C196.247 42.623 196.975 42.7573 197.643 43.026C198.31 43.286 198.886 43.6673 199.372 44.17C199.857 44.664 200.234 45.2793 200.503 46.016C200.78 46.744 200.919 47.576 200.919 48.512C200.919 48.876 200.88 49.1187 200.802 49.24C200.724 49.3613 200.576 49.422 200.36 49.422H191.598C191.615 50.254 191.728 50.9777 191.936 51.593C192.144 52.2083 192.43 52.724 192.794 53.14C193.158 53.5473 193.591 53.855 194.094 54.063C194.596 54.2623 195.16 54.362 195.784 54.362C196.364 54.362 196.863 54.297 197.279 54.167C197.703 54.0283 198.067 53.881 198.371 53.725C198.674 53.569 198.925 53.426 199.125 53.296C199.333 53.1573 199.51 53.088 199.658 53.088C199.848 53.088 199.996 53.1617 200.1 53.309L200.75 54.154C200.464 54.5007 200.121 54.804 199.723 55.064C199.324 55.3153 198.895 55.5233 198.436 55.688C197.985 55.8527 197.517 55.974 197.032 56.052C196.546 56.1387 196.065 56.182 195.589 56.182C194.679 56.182 193.838 56.0303 193.067 55.727C192.304 55.415 191.641 54.9643 191.078 54.375C190.523 53.777 190.09 53.0403 189.778 52.165C189.466 51.2897 189.31 50.2843 189.31 49.149C189.31 48.2303 189.448 47.3723 189.726 46.575C190.012 45.7777 190.419 45.0887 190.948 44.508C191.476 43.9187 192.122 43.4593 192.885 43.13C193.647 42.792 194.505 42.623 195.459 42.623ZM195.511 44.326C194.393 44.326 193.513 44.651 192.872 45.301C192.23 45.9423 191.832 46.835 191.676 47.979H198.839C198.839 47.4417 198.765 46.952 198.618 46.51C198.47 46.0593 198.254 45.6737 197.968 45.353C197.682 45.0237 197.331 44.7723 196.915 44.599C196.507 44.417 196.039 44.326 195.511 44.326ZM212.863 45.171C212.794 45.2663 212.725 45.34 212.655 45.392C212.586 45.444 212.486 45.47 212.356 45.47C212.226 45.47 212.083 45.418 211.927 45.314C211.78 45.2013 211.589 45.08 211.355 44.95C211.121 44.82 210.835 44.703 210.497 44.599C210.168 44.4863 209.761 44.43 209.275 44.43C208.634 44.43 208.066 44.547 207.572 44.781C207.078 45.0063 206.662 45.3357 206.324 45.769C205.995 46.2023 205.744 46.7267 205.57 47.342C205.406 47.9573 205.323 48.6463 205.323 49.409C205.323 50.2063 205.414 50.917 205.596 51.541C205.778 52.1563 206.034 52.6763 206.363 53.101C206.693 53.517 207.091 53.8377 207.559 54.063C208.036 54.2797 208.569 54.388 209.158 54.388C209.722 54.388 210.185 54.323 210.549 54.193C210.913 54.0543 211.217 53.9027 211.459 53.738C211.702 53.5733 211.901 53.426 212.057 53.296C212.213 53.1573 212.369 53.088 212.525 53.088C212.725 53.088 212.872 53.1617 212.967 53.309L213.617 54.154C213.045 54.856 212.33 55.3717 211.472 55.701C210.614 56.0217 209.709 56.182 208.755 56.182C207.932 56.182 207.165 56.0303 206.454 55.727C205.752 55.4237 205.141 54.986 204.621 54.414C204.101 53.8333 203.69 53.1227 203.386 52.282C203.092 51.4413 202.944 50.4837 202.944 49.409C202.944 48.4297 203.079 47.524 203.347 46.692C203.625 45.86 204.023 45.145 204.543 44.547C205.072 43.9403 205.722 43.468 206.493 43.13C207.265 42.792 208.149 42.623 209.145 42.623C210.064 42.623 210.879 42.7747 211.589 43.078C212.3 43.3727 212.928 43.793 213.474 44.339L212.863 45.171ZM220.008 56.208C218.968 56.208 218.166 55.9177 217.603 55.337C217.048 54.7563 216.771 53.92 216.771 52.828V44.768H215.185C215.046 44.768 214.929 44.729 214.834 44.651C214.739 44.5643 214.691 44.4343 214.691 44.261V43.338L216.849 43.065L217.382 38.996C217.399 38.866 217.456 38.762 217.551 38.684C217.646 38.5973 217.768 38.554 217.915 38.554H219.085V43.091H222.855V44.768H219.085V52.672C219.085 53.2267 219.219 53.6383 219.488 53.907C219.757 54.1757 220.103 54.31 220.528 54.31C220.771 54.31 220.979 54.2797 221.152 54.219C221.334 54.1497 221.49 54.076 221.62 53.998C221.75 53.92 221.858 53.8507 221.945 53.79C222.04 53.7207 222.123 53.686 222.192 53.686C222.313 53.686 222.422 53.7597 222.517 53.907L223.193 55.012C222.794 55.3847 222.313 55.6793 221.75 55.896C221.187 56.104 220.606 56.208 220.008 56.208Z" fill="#4B6F57"/>
</svg>
